<?xml version="1.0" standalone="no"?>
<!DOCTYPE svg PUBLIC "-//W3C//DTD SVG 20010904//EN"
 "http://www.w3.org/TR/2001/REC-SVG-20010904/DTD/svg10.dtd">
<svg version="1.0" xmlns="http://www.w3.org/2000/svg"
 width="260.000000pt" height="260.000000pt" viewBox="0 0 260.000000 260.000000"
 preserveAspectRatio="xMidYMid meet">
<metadata>
Created by potrace 1.11, written by Peter Selinger 2001-2013
</metadata>
<g transform="translate(0.000000,260.000000) scale(0.100000,-0.100000)"
fill="#000000" stroke="none">
<path d="M1081 2584 c-265 -45 -521 -182 -715 -384 -144 -151 -243 -317 -304
-510 -43 -138 -56 -227 -56 -390 0 -163 13 -252 56 -390 61 -193 160 -359 304
-510 251 -262 575 -400 939 -400 344 0 653 124 899 360 110 106 190 212 257
342 105 206 139 350 139 598 0 186 -13 275 -59 412 -63 186 -158 343 -297 488
-198 206 -451 340 -724 385 -116 18 -325 18 -439 -1z m437 -657 c106 -37 177
-82 259 -164 117 -118 193 -299 193 -463 0 -164 -76 -345 -193 -463 -82 -81
-152 -126 -259 -165 -66 -24 -86 -27 -213 -27 -127 0 -147 3 -213 27 -107 39
-177 84 -259 165 -117 118 -193 299 -193 463 0 200 112 419 274 534 133 95
239 127 411 122 99 -2 133 -7 193 -29z"/>
<path d="M1213 1606 c-134 -44 -215 -149 -221 -288 -5 -103 15 -162 79 -232
69 -75 129 -101 239 -100 72 0 93 4 136 26 65 34 137 114 158 175 21 60 20
166 0 227 -22 65 -100 148 -166 176 -65 28 -167 35 -225 16z"/>
</g>
</svg>
