<?xml version="1.0" encoding="UTF-8" standalone="no"?>
<svg
   viewBox="0 0 64 64"
   version="1.1"
   id="svg1"
   xmlns="http://www.w3.org/2000/svg"
   xmlns:svg="http://www.w3.org/2000/svg">
  <defs
     id="defs1" />
  <path
     d="m 52.58002,17.34 q 0,6.3 -6.96,10.02 -3.54,1.86 -6.66,2.4 3.66,0.9 5.4,2.4 2.34,2.04 2.34,5.46 0,3.36 -1.98,6.42 -1.92,3.06 -5.22,4.86 -4.02,2.22 -14.88,2.22 -0.12,0 -1.44,0 -1.26,-0.06 -2.4,-0.06 h -5.46 q -3.54,0 -4.08,0.06 h -0.36 q -0.66,0 -0.66,-0.48 0,-0.66 0.78,-0.6 l 2.64,0.24 q 2.28,-0.18 2.7,-0.3 0.48,-0.12 0.78,-0.78 0.12,-0.36 0.42,-1.08 0.36,-0.72 1.92,-4.62 l 10.56,-26.28 q 1.92,-4.8 1.92,-5.64 0,-1.02 -4.44,-1.02 -0.9,0 -0.9,-0.48 0,-0.42 0.96,-0.48 l 3,-0.12 h 10.86 q 5.64,0 8.1,1.74 3.06,2.16 3.06,6.12 z m -5.76,-1.38 q 0,-5.34 -6.3,-5.34 -1.14,0 -2.22,0.06 -0.54,1.08 -1.26,2.94 l -5.82,15.18 q 0.9,0.12 1.98,0.12 7.38,0 10.74,-4.2 2.88,-3.6 2.88,-8.76 z m -6.24,20.94 q 0,-6.78 -6.96,-6.78 -1.56,0 -3.12,0.18 l -6.6,16.86 q -0.72,1.86 -0.72,2.16 0,0.84 0.96,0.84 6.36,0 9.84,-1.98 6.6,-3.78 6.6,-11.28 z"
     id="text1"
     style="font-style:italic;font-weight:700;font-size:60px;font-family:'Bodoni Moda', 'Bodoni 72', Georgia, 'Times New Roman', serif;text-anchor:middle;fill:#b08a3e"
     aria-label="B" />
</svg>
